<?xml version="1.0" encoding="utf-8"?>
<!-- Generator: Adobe Illustrator 18.0.0, SVG Export Plug-In . SVG Version: 6.00 Build 0)  -->
<!DOCTYPE svg PUBLIC "-//W3C//DTD SVG 1.1//EN" "http://www.w3.org/Graphics/SVG/1.1/DTD/svg11.dtd">
<svg version="1.1" id="Layer_1" xmlns="http://www.w3.org/2000/svg" xmlns:xlink="http://www.w3.org/1999/xlink" x="0px" y="0px"
	 viewBox="0 0 1024 1024" enable-background="new 0 0 1024 1024" xml:space="preserve">
<g>
	<path fill="#FF0033" d="M875.8,13.5H148.2c-74.1,0-134.7,60.6-134.7,134.7v727.6c0,74.1,60.6,134.7,134.7,134.7H508V654.8h-93
		c-12.1,0-21.6-9.4-21.6-21.6V518.7c0-12.1,9.4-21.6,21.6-21.6h93V386.7c0-129.3,78.1-199.4,194-199.4h94.3
		c12.1,0,21.6,9.4,21.6,21.6v97c0,12.1-9.4,21.6-21.6,21.6h-57.9c-62,0-74.1,29.6-74.1,72.8v95.7h137.4c13.5,0,22.9,10.8,21.6,24.3
		l-13.5,114.5c-1.3,10.8-10.8,18.9-21.6,18.9H665.6v355.7h210.2c74.1,0,134.7-60.6,134.7-134.7V148.2
		C1010.5,74.1,949.9,13.5,875.8,13.5z"/>
</g>
</svg>
