<?xml version="1.0" encoding="utf-8"?>
<!-- Generator: Adobe Illustrator 18.0.0, SVG Export Plug-In . SVG Version: 6.00 Build 0)  -->
<!DOCTYPE svg PUBLIC "-//W3C//DTD SVG 1.1//EN" "http://www.w3.org/Graphics/SVG/1.1/DTD/svg11.dtd">
<svg version="1.1" id="Layer_1" xmlns="http://www.w3.org/2000/svg" xmlns:xlink="http://www.w3.org/1999/xlink" x="0px" y="0px"
	 viewBox="0 0 1024 1024" enable-background="new 0 0 1024 1024" xml:space="preserve">
<g>
	<g id="XMLID_1_">
		<path id="XMLID_4_" fill="#FF0033" d="M714.1,13.5H309.9c-163,0-296.4,133.4-296.4,296.4v404.2c0,164.4,133.4,296.4,296.4,296.4
			h404.2c164.4,0,296.4-133.4,296.4-296.4V309.9C1010.5,146.9,877.1,13.5,714.1,13.5z M910.8,714.1c0,107.8-88.9,196.7-196.7,196.7
			H309.9c-107.8,0-196.7-88.9-196.7-196.7V309.9c0-107.8,88.9-196.7,196.7-196.7h404.2c107.8,0,196.7,88.9,196.7,196.7V714.1
			L910.8,714.1z"/>
		<path id="XMLID_3_" fill="#FF0033" d="M512,254.7c-142.8,0-257.3,115.9-257.3,257.3S369.2,769.3,512,769.3S769.3,654.8,769.3,512
			S654.8,254.7,512,254.7z M512,669.6c-87.6,0-157.6-70.1-157.6-157.6S424.4,354.4,512,354.4S669.6,424.4,669.6,512
			S599.6,669.6,512,669.6z"/>
		<circle id="XMLID_2_" fill="#FF0033" cx="770.7" cy="256" r="62"/>
	</g>
</g>
</svg>
