<?xml version="1.0" encoding="utf-8"?>
<!-- Generator: Adobe Illustrator 18.0.0, SVG Export Plug-In . SVG Version: 6.00 Build 0)  -->
<!DOCTYPE svg PUBLIC "-//W3C//DTD SVG 1.1//EN" "http://www.w3.org/Graphics/SVG/1.1/DTD/svg11.dtd">
<svg version="1.1" id="Layer_1" xmlns="http://www.w3.org/2000/svg" xmlns:xlink="http://www.w3.org/1999/xlink" x="0px" y="0px"
	 viewBox="0 0 1024 1024" enable-background="new 0 0 1024 1024" xml:space="preserve">
<g>
	<path fill="#FF0033" d="M920.3,13.5H103.7c-49.9,0-90.3,40.4-90.3,90.3v816.5c0,49.9,40.4,90.3,90.3,90.3h816.5
		c49.9,0,90.3-40.4,90.3-90.3V103.7C1010.5,53.9,970.1,13.5,920.3,13.5z M322,874.4c0,14.8-12.1,25.6-25.6,25.6H184.6
		c-14.8,0-25.6-12.1-25.6-25.6V405.6c0-14.8,12.1-25.6,25.6-25.6h111.8c14.8,0,25.6,12.1,25.6,25.6V874.4z M239.8,335.5
		c-59.3,0-106.4-47.2-106.4-106.4s47.2-106.4,106.4-106.4s106.4,47.2,106.4,106.4S299.1,335.5,239.8,335.5z M905.4,877.1
		c0,13.5-10.8,24.3-24.3,24.3H761.3c-13.5,0-24.3-10.8-24.3-24.3v-221c0-32.3,9.4-144.2-86.2-144.2c-74.1,0-88.9,75.5-91.6,110.5
		v253.3c0,13.5-10.8,24.3-24.3,24.3H419c-13.5,0-24.3-10.8-24.3-24.3V404.2c0-13.5,10.8-24.3,24.3-24.3h115.9
		c13.5,0,24.3,10.8,24.3,24.3v40.4c26.9-41.8,68.7-72.8,154.9-72.8c191.3,0,191.3,179.2,191.3,277.6L905.4,877.1L905.4,877.1z"/>
</g>
</svg>
