<?xml version="1.0" encoding="utf-8"?>
<!-- Generator: Adobe Illustrator 18.0.0, SVG Export Plug-In . SVG Version: 6.00 Build 0)  -->
<!DOCTYPE svg PUBLIC "-//W3C//DTD SVG 1.1//EN" "http://www.w3.org/Graphics/SVG/1.1/DTD/svg11.dtd">
<svg version="1.1" id="Layer_1" xmlns="http://www.w3.org/2000/svg" xmlns:xlink="http://www.w3.org/1999/xlink" x="0px" y="0px"
	 viewBox="0 0 1024 1024" enable-background="new 0 0 1024 1024" xml:space="preserve">
<g>
	<path fill="#FF0033" d="M512,84.9c133.4,0,245.2,111.8,245.2,245.2c0,31,1.3,60.6,2.7,87.6c1.3,16.2,14.8,28.3,31,28.3
		c2.7,0,4,0,6.7-1.3l41.8-9.4c1.3,0,4,0,5.4,0c10.8,0,20.2,6.7,22.9,17.5c4,14.8-5.4,31-20.2,36.4l-63.3,25.6
		c-16.2,6.7-24.3,24.3-20.2,40.4c51.2,188.6,194,169.8,194,194c0,31-107.8,35-117.2,44.5s0,56.6-21.6,66c-5.4,2.7-10.8,2.7-17.5,2.7
		c-16.2,0-39.1-2.7-63.3-2.7c-21.6,0-43.1,2.7-62,10.8c-51.2,24.3-101.1,68.7-163,68.7s-110.5-44.5-163-68.7
		c-18.9-9.4-41.8-10.8-62-10.8c-24.3,0-47.2,2.7-63.3,2.7c-6.7,0-13.5,0-17.5-2.7c-21.6-9.4-12.1-56.6-21.6-66
		c-9.4-9.4-118.6-13.5-118.6-44.5c0-24.3,142.8-5.4,194-194c4-16.2-4-33.7-20.2-40.4l-63.3-25.6c-14.8-5.4-22.9-20.2-20.2-36.4
		c2.7-10.8,12.1-17.5,22.9-17.5c1.3,0,4,0,5.4,0l41.8,9.4c2.7,0,4,1.3,6.7,1.3c16.2,0,29.6-12.1,31-28.3c1.3-26.9,2.7-55.2,2.7-87.6
		C266.8,196.7,377.3,84.9,512,84.9 M512,32.3L512,32.3L512,32.3c-40.4,0-79.5,8.1-115.9,24.3c-35,14.8-67.4,36.4-94.3,64.7
		c-26.9,26.9-48.5,59.3-63.3,94.3c-16.2,36.4-24.3,75.5-24.3,115.9c0,20.2,0,39.1-1.3,56.6l-16.2-4c-5.4-1.3-12.1-2.7-17.5-2.7
		c-17.5,0-33.7,5.4-47.2,16.2c-13.5,10.8-24.3,26.9-28.3,43.1c-9.4,40.4,13.5,82.2,52.5,97l47.2,18.9
		c-31,94.3-87.6,113.2-126.7,125.3c-10.8,2.7-18.9,5.4-26.9,10.8c-32.3,17.5-36.4,45.8-36.4,56.6c0,21.6,10.8,41.8,28.3,55.2
		c9.4,6.7,20.2,13.5,35,17.5c20.2,6.7,41.8,10.8,60.6,14.8c1.3,6.7,2.7,14.8,4,21.6c9.4,31,28.3,44.5,43.1,51.2
		c13.5,5.4,28.3,6.7,37.7,6.7c9.4,0,18.9-1.3,29.6-1.3c10.8-1.3,22.9-1.3,33.7-1.3c17.5,0,31,2.7,40.4,6.7
		c13.5,5.4,26.9,13.5,41.8,22.9c40.4,24.3,86.2,51.2,144.2,51.2s103.7-26.9,144.2-51.2c14.8-8.1,28.3-16.2,41.8-22.9
		c9.4-4,22.9-6.7,40.4-6.7c10.8,0,22.9,1.3,33.7,1.3c10.8,1.3,20.2,1.3,29.6,1.3s24.3,0,37.7-6.7c14.8-6.7,33.7-20.2,43.1-51.2
		c2.7-6.7,4-14.8,4-21.6c18.9-4,40.4-8.1,60.6-14.8c14.8-5.4,25.6-10.8,35-17.5c18.9-14.8,28.3-33.7,28.3-55.2
		c0-10.8-4-39.1-36.4-56.6c-8.1-4-17.5-6.7-26.9-10.8c-37.7-12.1-95.7-31-126.7-125.3l47.2-18.9c39.1-14.8,62-56.6,52.5-97
		c-4-17.5-13.5-32.3-28.3-43.1c-13.5-10.8-29.6-16.2-47.2-16.2c-5.4,0-12.1,1.3-17.5,2.7l-16.2,4c-1.3-18.9-1.3-37.7-1.3-56.6
		c0-40.4-8.1-79.5-24.3-115.9c-14.8-35-36.4-67.4-64.7-94.3c-26.9-26.9-59.3-48.5-94.3-64.7C590.1,40.4,551.1,32.3,512,32.3
		L512,32.3z"/>
</g>
</svg>
