<?xml version="1.0" encoding="utf-8"?>
<!-- Generator: Adobe Illustrator 18.0.0, SVG Export Plug-In . SVG Version: 6.00 Build 0)  -->
<!DOCTYPE svg PUBLIC "-//W3C//DTD SVG 1.1//EN" "http://www.w3.org/Graphics/SVG/1.1/DTD/svg11.dtd">
<svg version="1.1" id="Layer_1" xmlns="http://www.w3.org/2000/svg" xmlns:xlink="http://www.w3.org/1999/xlink" x="0px" y="0px"
	 viewBox="0 0 1024 1024" enable-background="new 0 0 1024 1024" xml:space="preserve">
<g>
	<path fill="#FF0033" d="M994.4,194c-21.6,9.4-45.8,17.5-68.7,22.9c25.6-24.3,45.8-55.2,56.6-90.3l0,0c2.7-9.4-8.1-18.9-16.2-13.5
		l0,0c-32.3,18.9-68.7,33.7-105.1,43.1c-2.7,0-4,1.3-6.7,1.3c-6.7,0-13.5-2.7-18.9-6.7c-39.1-35-90.3-53.9-142.8-53.9
		c-22.9,0-45.8,4-68.7,10.8c-70.1,21.6-124,79.5-140.1,149.6c-6.7,26.9-8.1,53.9-5.4,79.5c0,2.7-1.3,5.4-1.3,5.4
		c-1.3,1.3-4,2.7-5.4,2.7c0,0,0,0-1.3,0c-152.3-14.8-289.7-87.6-388-207.5l0,0c-5.4-6.7-14.8-5.4-18.9,1.3l0,0
		c-18.9,32.3-29.6,70.1-29.6,107.8c0,57.9,22.9,113.2,64.7,153.6c-14.8-2.7-31-9.4-47.2-17.5l0,0c-8.1-4-16.2,1.3-16.2,9.4l0,0
		c-1.3,86.2,49.9,163,125.3,198.1c-1.3,0-2.7,0-4,0c-12.1,0-24.3-1.3-36.4-4l0,0c-8.1-1.3-14.8,6.7-13.5,14.8l0,0
		c24.3,76.8,90.3,133.4,169.8,146.9c-66,44.5-142.8,67.4-222.3,67.4H29.6c-8.1,0-13.5,5.4-16.2,12.1c-1.3,6.7,1.3,14.8,8.1,18.9
		c90.3,52.5,192.7,79.5,296.4,79.5c91.6,0,176.5-17.5,253.3-53.9c70.1-32.3,133.4-79.5,185.9-138.8c48.5-55.2,87.6-119.9,113.2-190
		c25.6-67.4,39.1-138.8,39.1-207.5v-2.7c0-10.8,5.4-21.6,13.5-28.3c33.7-26.9,62-57.9,84.9-94.3l0,0
		C1014.6,200.8,1005.1,188.6,994.4,194L994.4,194z"/>
</g>
</svg>
